HIERARCHY
ROOT Hips
{
  OFFSET 0 0 0
  CHANNELS 6 Xposition Yposition Zposition Zrotation Yrotation Xrotation
  JOINT LeftThigh
  {
    OFFSET 8.409438 0 -5.917753
    CHANNELS 3 Zrotation Yrotation Xrotation
    JOINT LeftLeg
    {
      OFFSET 0 0 -42.358652
      CHANNELS 3 Zrotation Yrotation Xrotation
      JOINT LeftFoot
      {
        OFFSET 0 0 -39.357303
        CHANNELS 3 Zrotation Yrotation Xrotation
      }
    }
  }
  JOINT RightThigh
  {
    OFFSET -8.409438 0 -5.917753
    CHANNELS 3 Zrotation Yrotation Xrotation
    JOINT RightLeg
    {
      OFFSET 0 0 -42.358652
      CHANNELS 3 Zrotation Yrotation Xrotation
      JOINT RightFoot
      {
        OFFSET 0 0 -39.357303
        CHANNELS 3 Zrotation Yrotation Xrotation
      }
    }
  }
  JOINT SpineLow
  {
    OFFSET 0 0 4.719101
    CHANNELS 3 Zrotation Yrotation Xrotation
    JOINT SpineMid
    {
      OFFSET 0 0 12.899191
      CHANNELS 3 Zrotation Yrotation Xrotation
      JOINT Chest
      {
        OFFSET 0 0 12.899191
        CHANNELS 3 Zrotation Yrotation Xrotation
        JOINT LeftShoulder
        {
          OFFSET 7.550562 1.41573 9.438202
          CHANNELS 3 Zrotation Yrotation Xrotation
          JOINT LeftArm
          {
            OFFSET 9.155056 0 4.247191
            CHANNELS 3 Zrotation Yrotation Xrotation
            JOINT LeftForearm
            {
              OFFSET 0 0 25.771955
              CHANNELS 3 Zrotation Yrotation Xrotation
              JOINT LeftHand
              {
                OFFSET 0 0 25.197169
                CHANNELS 3 Zrotation Yrotation Xrotation
              }
            }
          }
        }
        JOINT RightShoulder
        {
          OFFSET -7.550562 1.41573 9.438202
          CHANNELS 3 Zrotation Yrotation Xrotation
          JOINT RightArm
          {
            OFFSET -9.155056 0 4.247191
            CHANNELS 3 Zrotation Yrotation Xrotation
            JOINT RightForearm
            {
              OFFSET 0 0 -25.771955
              CHANNELS 3 Zrotation Yrotation Xrotation
              JOINT RightHand
              {
                OFFSET 0 0 -25.197169
                CHANNELS 3 Zrotation Yrotation Xrotation
              }
            }
          }
        }
        JOINT Neck
        {
          OFFSET 0 0 15.101124
          CHANNELS 3 Zrotation Yrotation Xrotation
          JOINT Head
          {
            OFFSET 0 0 11.325843
            CHANNELS 3 Zrotation Yrotation Xrotation
            End Site
            {
              OFFSET 0 0 14.157303
            }
          }
        }
      }
    }
  }
}
MOTION
Frames: 11
Frame Time: 0.0
0.0  93.25843  0.0  5.417378  -39.593855  -87.939858  23.017073  -9.73729  -4.265106  0.800527  1.306051  18.044086  11.13191  4.858509  7.906887  1.914002  2.773317  -17.950078  9.075433  11.512385  17.58074  0.477079  -0.128142  -0.609871  -5.572421  -0.981511  -2.091403  -15.14402  -3.144434  -5.46008  -15.14402  -3.144434  -5.460079  -15.251645  3.874604  11.757761  9.956619  58.763815  61.095233  -25.403633  -17.712287  137.184832  66.393837  -37.364515  19.173297  9.341757  2.558986  29.541994  60.840755  15.793957  51.853189  -7.645077  0.947791  -115.927907  61.793066  22.892535  8.139465  27.311292  4.228816  4.515571  20.444291  3.38174  3.203257  
0.0  93.25843  0.0  5.234521  -38.765859  -87.822562  22.992653  -9.853395  -4.512329  0.347033  1.373821  18.100031  11.010385  4.821137  7.838166  1.038486  2.788016  -17.792698  8.856527  11.349596  17.480466  0.61194  -0.19339  -0.605545  -5.625666  -1.002384  -2.077807  -15.28885  -3.202224  -5.415603  -15.28885  -3.202224  -5.415603  -14.923237  4.413155  11.754989  10.555561  59.113943  61.603927  -25.228948  -17.82863  137.008748  67.311986  -37.151968  18.905595  9.764304  2.626344  29.552992  61.126936  16.01898  51.940482  -8.341187  -0.422479  -116.557911  61.961611  21.714467  7.587431  27.43863  4.509832  4.476563  20.536651  3.59226  3.160188  
0.0  93.25843  0.0  5.071328  -37.75415  -87.558378  22.529064  -9.954836  -4.884165  -0.070891  1.499411  18.07116  11.012728  4.750607  7.769925  -0.068737  2.777067  -17.806192  8.608437  11.246922  17.369979  0.757468  -0.270245  -0.565041  -5.651931  -1.013827  -2.080976  -15.35971  -3.236091  -5.420221  -15.359709  -3.236091  -5.420221  -14.994809  4.905594  11.735751  11.122875  59.651926  61.96625  -25.398448  -18.220829  136.818119  67.598642  -37.158845  18.691591  9.998552  2.689519  29.659948  61.467918  16.289841  51.909126  -8.212542  -0.730829  -116.454164  61.80363  21.696857  7.951254  27.36396  4.713817  4.338513  20.479169  3.738798  3.047594  
0.0  93.25843  0.0  4.839464  -36.700364  -87.175407  22.023577  -9.909132  -5.176239  0.07541  1.616462  18.332404  10.49915  4.448113  7.213854  -1.174508  2.660713  -17.924862  8.278687  11.233021  17.296174  0.896174  -0.314239  -0.50372  -5.728491  -1.059137  -2.102667  -15.564776  -3.370176  -5.46464  -15.564776  -3.370176  -5.464639  -14.601788  5.624217  11.771976  11.419908  60.283004  62.154501  -25.591462  -18.547183  136.705527  67.762791  -37.14276  18.557987  10.727771  2.876229  29.976348  61.855315  16.576722  51.737653  -8.151455  -1.05128  -116.296962  61.73473  21.608896  8.402809  27.501493  4.897772  4.226244  20.580861  3.873084  2.953737  
0.0  93.25843  0.0  4.777906  -35.505679  -86.986995  21.027806  -9.881603  -5.463435  -0.192305  1.639483  18.178326  10.591235  4.337252  7.167857  -2.224942  2.664346  -17.953735  7.786715  11.348559  17.260306  1.032434  -0.360517  -0.487069  -5.734557  -1.047933  -2.090607  -15.58277  -3.33743  -5.43409  -15.582771  -3.33743  -5.434091  -14.782183  6.192557  11.691359  11.647353  61.049979  62.293054  -25.796913  -18.791364  136.619241  67.857988  -37.067697  18.517255  11.050851  2.948629  30.184154  62.264669  16.85181  51.417031  -8.216587  -1.309911  -116.106582  61.774696  21.419794  8.920369  27.271885  4.986403  3.94968  20.409778  3.925558  2.74362  
0.0  93.25843  0.0  4.685862  -34.439125  -87.022832  20.174577  -9.947708  -5.443364  -0.386509  1.611085  17.940627  10.748538  4.210282  7.213871  -2.941851  2.680207  -17.648808  7.278167  11.437902  17.194285  1.108887  -0.350682  -0.49622  -5.709658  -1.032821  -2.043797  -15.51824  -3.283547  -5.311685  -15.51824  -3.283547  -5.311685  -14.854936  6.885335  11.595308  11.839614  61.926145  62.544338  -25.974559  -19.00556  136.550355  67.890728  -36.900063  18.523068  11.431089  3.018307  30.46205  62.689707  17.170661  51.019883  -8.382688  -1.441286  -115.904508  62.013603  21.124034  9.547903  27.034124  5.05523  3.691296  20.232763  3.964107  2.548217  
0.0  93.25843  0.0  4.721765  -32.806599  -86.947359  18.773064  -9.880095  -5.608063  -0.522996  1.527647  17.697756  10.715096  4.069257  7.15411  -4.311448  2.770139  -17.522673  6.900739  11.508697  17.036523  1.216673  -0.360374  -0.44256  -5.720016  -1.002528  -2.025276  -15.549513  -3.197802  -5.267732  -15.549512  -3.197802  -5.267732  -15.103392  7.609041  11.413921  12.182445  62.96714  63.045472  -26.080753  -19.219858  136.442634  67.92776  -36.651189  18.597238  11.682409  3.040737  30.715194  63.032639  17.547699  50.502428  -8.654656  -1.42335  -115.699208  62.450696  20.682739  10.328167  26.591044  5.080417  3.416251  19.902527  3.968029  2.343977  
0.0  93.25843  0.0  4.751835  -31.098508  -86.845886  17.443462  -9.81569  -5.759732  -0.734303  1.414763  17.396173  10.579331  3.934794  7.066623  -5.716115  2.896409  -17.332364  7.484725  11.291243  17.214935  0.826138  -0.268819  -0.605246  -5.703762  -0.969698  -2.005356  -15.508243  -3.102806  -5.221976  -15.508244  -3.102806  -5.221976  -15.384987  8.364788  11.229703  12.57029  64.246378  63.721553  -26.130519  -19.429378  136.28884  67.970972  -36.269544  18.803878  11.795476  2.972352  30.836959  63.350704  17.932921  49.972786  -9.029647  -1.229738  -115.486757  63.021849  20.066023  11.270077  25.870213  5.096473  3.094032  19.364619  3.961874  2.107013  
0.0  93.25843  0.0  4.785669  -29.229172  -86.643304  16.146171  -9.742884  -5.990143  -1.120806  1.319603  17.020883  10.371505  3.828701  6.960199  -7.115747  3.138382  -17.188709  7.213553  11.152745  16.964744  0.826436  -0.244589  -0.622763  -5.676671  -0.938515  -2.000854  -15.436443  -3.015052  -5.218259  -15.436444  -3.015052  -5.218259  -15.655339  9.085487  11.077276  13.01437  65.894285  64.610012  -26.11479  -19.643338  136.069239  68.041907  -35.738876  19.105226  11.927561  2.793697  31.006177  63.477963  18.441859  49.316049  -9.548187  -0.81654  -115.27261  63.696629  19.223059  12.419164  25.185029  5.127238  2.904767  18.852262  3.973238  1.969093  
0.0  93.25843  0.0  4.852887  -27.303579  -86.424204  14.952956  -9.665954  -6.21713  -1.689777  1.281892  16.554091  10.17043  3.713524  6.850793  -8.163609  3.522093  -17.00022  6.687592  10.994948  16.643734  0.530445  -0.324301  -0.693119  -5.634659  -0.905086  -2.004622  -15.323617  -2.921965  -5.238198  -15.323617  -2.921964  -5.238198  -15.820512  9.829402  10.929402  13.634111  67.891342  65.821359  -26.006293  -19.823605  135.769201  68.188705  -35.078437  19.455962  11.975593  2.589887  31.205368  63.588779  19.095526  48.561624  -10.19724  -0.16012  -115.031043  64.350594  18.216461  13.760706  24.350327  5.161795  2.74667  18.227586  3.988375  1.855758  
0.0  93.25843  0.0  4.942739  -25.320063  -86.131631  13.796049  -9.57401  -6.490397  -2.364421  1.28903  15.965717  10.078357  3.579796  6.808195  -8.905882  3.980924  -16.807592  5.880982  10.836821  16.189214  0.443493  -0.322283  -0.674889  -5.575359  -0.871853  -2.013923  -15.163307  -2.829309  -5.273844  -15.163307  -2.829309  -5.273845  -15.87657  10.519445  10.751005  14.452953  70.264849  67.412324  -25.765422  -19.897988  135.3317  68.380156  -34.341644  19.84186  12.004535  2.375104  31.420395  63.609133  19.905001  47.635311  -10.89554  0.647765  -114.811131  64.994454  17.029682  15.225553  23.506443  5.237394  2.644244  17.595237  4.0369  1.782815  
